<?xml version="1.0" encoding="UTF-8"?>
<svg version="1.1" xmlns="http://www.w3.org/2000/svg" width="256" height="184">
<path d="M0 0 C1.6689062 0.00138269 1.6689062 0.00138269 3.37152767 0.00279331 C4.6434396 0.00141865 5.91535152 0.00004398 7.22580624 -0.00137234 C8.64839863 0.00216728 10.07099079 0.00580209 11.49358273 0.00952244 C12.98139602 0.0098043 14.46920945 0.00964659 15.95702267 0.00907993 C20.00849921 0.00879193 24.05994641 0.01468916 28.1114161 0.02165389 C32.34084918 0.02788691 36.57028285 0.02849119 40.79971981 0.0296793 C48.81432643 0.03279277 56.82891947 0.04100637 64.8435201 0.05102879 C75.66972022 0.06427454 86.49592403 0.06968971 97.3221302 0.07553101 C114.38767338 0.08494625 131.45318791 0.10486506 148.51872921 0.12304783 C148.51872921 48.96304783 148.51872921 97.80304783 148.51872921 148.12304783 C111.22872921 148.12304783 73.93872921 148.12304783 35.51872921 148.12304783 C35.49810421 129.99367283 35.47747921 111.86429783 35.45622921 93.18554783 C35.44712521 87.4518784 35.4380212 81.71820896 35.42864132 75.81079197 C35.42412472 68.8328867 35.42412472 68.8328867 35.42328548 65.57078648 C35.42174548 63.28249511 35.4182194 60.99420459 35.41315365 58.70591831 C35.4058798 55.24867426 35.40482167 51.79147998 35.40520382 48.33422947 C35.40160571 47.30730771 35.3980076 46.28038595 35.39430046 45.22234535 C35.39567796 44.29734954 35.39705545 43.37235373 35.39847469 42.41932774 C35.3975529 41.6090717 35.39663111 40.79881567 35.39568138 39.96400642 C35.51872921 38.12304783 35.51872921 38.12304783 36.51872921 37.12304783 C38.34988804 37.02453612 40.18492854 36.99332154 42.01872921 36.99804783 C43.01904171 36.9954697 44.01935421 36.99289158 45.04997921 36.99023533 C47.51872921 37.12304783 47.51872921 37.12304783 48.51872921 38.12304783 C48.60630924 40.12269765 48.62569497 42.12540893 48.61638546 44.12695408 C48.6131628 45.34189548 48.60994015 46.55683689 48.60661983 47.8085947 C48.59405148 49.7276865 48.59405148 49.7276865 48.58122921 51.68554783 C48.57671749 52.96880955 48.57220577 54.25207127 48.56755733 55.5742197 C48.55572466 58.75720805 48.53923989 61.94010545 48.51872921 65.12304783 C50.49872921 65.12304783 52.47872921 65.12304783 54.51872921 65.12304783 C54.51872921 55.88304783 54.51872921 46.64304783 54.51872921 37.12304783 C59.96372921 36.62804783 59.96372921 36.62804783 65.51872921 36.12304783 C65.51872921 35.46304783 65.51872921 34.80304783 65.51872921 34.12304783 C42.74872921 33.79304783 19.97872921 33.46304783 -3.48127079 33.12304783 C-3.48127079 0.17263848 -3.48127079 0.17263848 0 0 Z M76.51872921 33.12304783 C74.82415881 37.035764 73.13360486 40.95018348 71.44670773 44.86621189 C70.87260677 46.19741355 70.29742211 47.5281484 69.72112179 48.85839939 C68.89166804 50.77351435 68.06616053 52.69028909 67.24138546 54.60742283 C66.7438879 55.75952244 66.24639034 56.91162205 65.7338171 58.09863377 C64.78461995 60.46123258 64.03298904 62.63967913 63.51872921 65.12304783 C65.82872921 65.12304783 68.13872921 65.12304783 70.51872921 65.12304783 C71.50872921 61.65804783 71.50872921 61.65804783 72.51872921 58.12304783 C77.79872921 58.45304783 83.07872921 58.78304783 88.51872921 59.12304783 C89.17872921 61.10304783 89.83872921 63.08304783 90.51872921 65.12304783 C92.82872921 65.12304783 95.13872921 65.12304783 97.51872921 65.12304783 C95.46273542 57.68143294 92.81023827 50.61536134 89.83122921 43.49804783 C89.20764523 41.9917783 89.20764523 41.9917783 88.57146358 40.45507908 C87.55818825 38.00924207 86.54056125 35.56531933 85.51872921 33.12304783 C82.54872921 33.12304783 79.57872921 33.12304783 76.51872921 33.12304783 Z M48.51872921 69.12304783 C48.51872921 79.68304783 48.51872921 90.24304783 48.51872921 101.12304783 C56.10872921 101.12304783 63.69872921 101.12304783 71.51872921 101.12304783 C71.51872921 99.80304783 71.51872921 98.48304783 71.51872921 97.12304783 C65.90872921 97.12304783 60.29872921 97.12304783 54.51872921 97.12304783 C54.84872921 87.88304783 55.17872921 78.64304783 55.51872921 69.12304783 C53.20872921 69.12304783 50.89872921 69.12304783 48.51872921 69.12304783 Z M75.51872921 69.12304783 C75.51872921 79.68304783 75.51872921 90.24304783 75.51872921 101.12304783 C83.76872921 101.12304783 92.01872921 101.12304783 100.51872921 101.12304783 C100.51872921 99.80304783 100.51872921 98.48304783 100.51872921 97.12304783 C94.57872921 97.12304783 88.63872921 97.12304783 82.51872921 97.12304783 C82.51872921 93.82304783 82.51872921 90.52304783 82.51872921 87.12304783 C87.79872921 87.12304783 93.07872921 87.12304783 98.51872921 87.12304783 C98.51872921 85.80304783 98.51872921 84.48304783 98.51872921 83.12304783 C93.23872921 83.12304783 87.95872921 83.12304783 82.51872921 83.12304783 C82.51872921 79.82304783 82.51872921 76.52304783 82.51872921 73.12304783 C88.12872921 73.12304783 93.73872921 73.12304783 99.51872921 73.12304783 C99.51872921 71.80304783 99.51872921 70.48304783 99.51872921 69.12304783 C91.59872921 69.12304783 83.67872921 69.12304783 75.51872921 69.12304783 Z M104.51872921 69.12304783 C104.51872921 79.68304783 104.51872921 90.24304783 104.51872921 101.12304783 C106.82872921 101.12304783 109.13872921 101.12304783 111.51872921 101.12304783 C111.51872921 92.21304783 111.51872921 83.30304783 111.51872921 74.12304783 C112.17872921 74.12304783 112.83872921 74.12304783 113.51872921 74.12304783 C113.62757442 74.83871922 113.73641964 75.5543906 113.84856319 76.291749 C114.57805575 79.37368897 115.70520293 81.65870052 117.24138546 84.42382908 C117.77956905 85.40029392 118.31775265 86.37675877 118.87224483 87.38281345 C119.43620968 88.3902158 120.00017452 89.39761814 120.58122921 90.43554783 C121.43297726 91.97565525 121.43297726 91.97565525 122.30193233 93.54687595 C123.70157916 96.07564963 125.10733432 98.60081819 126.51872921 101.12304783 C129.81872921 101.12304783 133.11872921 101.12304783 136.51872921 101.12304783 C136.51872921 90.56304783 136.51872921 80.00304783 136.51872921 69.12304783 C134.53872921 69.12304783 132.55872921 69.12304783 130.51872921 69.12304783 C130.51872921 77.37304783 130.51872921 85.62304783 130.51872921 94.12304783 C129.85872921 94.45304783 129.19872921 94.78304783 128.51872921 95.12304783 C128.40464718 94.56512547 128.29056515 94.0072031 128.17302608 93.432374 C127.42509233 90.79255856 126.32916567 88.60120927 125.04997921 86.17382908 C124.56142452 85.24377048 124.07286983 84.31371189 123.56951046 83.3554697 C122.80187374 81.91010838 122.80187374 81.91010838 122.01872921 80.43554783 C121.5069714 79.46037205 120.99521358 78.48519627 120.46794796 77.4804697 C118.38237314 73.03201156 118.38237314 73.03201156 115.51872921 69.12304783 C111.88872921 69.12304783 108.25872921 69.12304783 104.51872921 69.12304783 Z M48.51872921 106.12304783 C48.51872921 107.44304783 48.51872921 108.76304783 48.51872921 110.12304783 C52.14872921 110.12304783 55.77872921 110.12304783 59.51872921 110.12304783 C59.51872921 119.36304783 59.51872921 128.60304783 59.51872921 138.12304783 C61.82872921 138.12304783 64.13872921 138.12304783 66.51872921 138.12304783 C66.51872921 129.21304783 66.51872921 120.30304783 66.51872921 111.12304783 C70.14872921 110.79304783 73.77872921 110.46304783 77.51872921 110.12304783 C77.51872921 108.80304783 77.51872921 107.48304783 77.51872921 106.12304783 C67.94872921 106.12304783 58.37872921 106.12304783 48.51872921 106.12304783 Z M82.51872921 110.12304783 C79.27981647 115.16135654 77.64481643 120.11489748 78.51872921 126.12304783 C80.50068838 132.02438692 82.92844486 135.10429428 88.51872921 138.12304783 C92.19321443 138.75142198 92.19321443 138.75142198 96.01872921 138.62304783 C97.28716671 138.63336033 98.55560421 138.64367283 99.86247921 138.65429783 C104.72967957 137.94709778 107.92448698 136.1520834 110.97966671 132.26367283 C114.05751715 125.89752063 114.51803028 121.27873542 112.33122921 114.37304783 C110.08683415 110.3486153 107.61308299 108.17022472 103.51872921 106.12304783 C92.15962529 105.12414796 92.15962529 105.12414796 82.51872921 110.12304783 Z " fill="#2E3E4A" transform="translate(3.4812707901000977,35.876952171325684)"/>
<path d="M0 0 C10.56 0 21.12 0 32 0 C32 10.56 32 21.12 32 32 C21.44 32 10.88 32 0 32 C0 21.44 0 10.88 0 0 Z " fill="#EF8109" transform="translate(39,0)"/>
<path d="M0 0 C3.96 0 7.92 0 12 0 C13.32 4.62 14.64 9.24 16 14 C17.76054874 9.35855331 19.46527032 4.72224516 21 0 C24.96 0 28.92 0 33 0 C33 11.22 33 22.44 33 34 C30.03 34 27.06 34 24 34 C23.67 31.69 23.34 29.38 23 27 C22.34 29.31 21.68 31.62 21 34 C18.03 34 15.06 34 12 34 C11.01 30.37 10.02 26.74 9 23 C8.67 26.63 8.34 30.26 8 34 C5.36 34 2.72 34 0 34 C0 22.78 0 11.56 0 0 Z " fill="#354450" transform="translate(223,141)"/>
<path d="M0 0 C2.97 0 5.94 0 9 0 C9.33 8.25 9.66 16.5 10 25 C13.98171738 25.7209045 13.98171738 25.7209045 18 26 C18.33 17.42 18.66 8.84 19 0 C21.97 0 24.94 0 28 0 C28.05445577 3.31272623 28.09389237 6.62453782 28.125 9.9375 C28.14175781 10.86369141 28.15851563 11.78988281 28.17578125 12.74414062 C28.27626367 27.06288559 28.27626367 27.06288559 24.0625 32.5 C19.51895442 35.80439679 14.38760404 35.46994677 9 35 C4.73345702 33.44852983 2.30599742 31.90150058 0 28 C-0.34057617 24.97558594 -0.34057617 24.97558594 -0.29296875 21.484375 C-0.28330078 20.23398438 -0.27363281 18.98359375 -0.26367188 17.6953125 C-0.2259668 15.74238281 -0.2259668 15.74238281 -0.1875 13.75 C-0.16719727 11.77386719 -0.16719727 11.77386719 -0.14648438 9.7578125 C-0.11112551 6.50479679 -0.06177033 3.252604 0 0 Z " fill="#354550" transform="translate(161,141)"/>
<path d="M0 0 C2.97 0 5.94 0 9 0 C10.85584011 4.51886436 12.70713411 9.0395535 14.55419922 13.56201172 C15.18347884 15.10093664 15.81400811 16.63935118 16.44580078 18.17724609 C17.35255984 20.38506917 18.25484123 22.59467556 19.15625 24.8046875 C19.44060913 25.49432587 19.72496826 26.18396423 20.01794434 26.89450073 C22 31.77225659 22 31.77225659 22 34 C18.7 34 15.4 34 12 34 C11.34 31.69 10.68 29.38 10 27 C6.37 27 2.74 27 -1 27 C-1.66 29.31 -2.32 31.62 -3 34 C-6.3 34 -9.6 34 -13 34 C-10.6065288 26.50151713 -7.76336589 19.2325793 -4.8125 11.9375 C-4.11737305 10.20983398 -4.11737305 10.20983398 -3.40820312 8.44726562 C-2.2745028 5.63054626 -1.13838499 2.81482853 0 0 Z M4 12 C3.34 14.31 2.68 16.62 2 19 C3.65 19 5.3 19 7 19 C6.34 16.69 5.68 14.38 5 12 C4.67 12 4.34 12 4 12 Z " fill="#374752" transform="translate(200,141)"/>
<path d="M0 0 C3.49555269 3.58754092 5.14874138 6.28832762 5.25 11.25 C5.18798808 15.53571285 4.48376572 18.40282206 2 22 C-0.3035185 24.04025925 -1.87368593 24.92595943 -4.9609375 25.12890625 C-8.76798604 24.8953884 -10.36454506 24.61075528 -13.2109375 21.875 C-16.44399887 16.67951274 -15.83249588 10.90507673 -15 5 C-11.84376685 -1.13176594 -6.13613568 -1.50712104 0 0 Z " fill="#32414D" transform="translate(105,146)"/>
<path d="M0 0 C0.99 0.33 1.98 0.66 3 1 C4.16796875 3.3984375 4.16796875 3.3984375 5.1875 6.375 C5.53167969 7.35210937 5.87585938 8.32921875 6.23046875 9.3359375 C7 12 7 12 7 15 C3.04 15 -0.92 15 -5 15 C-4.23239022 11.16195111 -3.40495674 8.23779856 -1.9375 4.6875 C-1.39416016 3.36298828 -1.39416016 3.36298828 -0.83984375 2.01171875 C-0.56269531 1.34785156 -0.28554687 0.68398437 0 0 Z " fill="#364651" transform="translate(83,75)"/>
<path d="M0 0 C2.44839588 3.67259383 4 6.54648201 4 11 C0.04 11 -3.92 11 -8 11 C-7.67 9.35 -7.34 7.7 -7 6 C-6.67 6.99 -6.34 7.98 -6 9 C-3.36 9 -0.72 9 2 9 C1.67 8.2575 1.34 7.515 1 6.75 C0 4 0 4 0 0 Z " fill="#7D878E" transform="translate(86,79)"/>
</svg>
